<svg version="1.1" xmlns="http://www.w3.org/2000/svg" xmlns:xlink="http://www.w3.org/1999/xlink" width="24" height="24" viewBox="0,0,24,24"><defs><linearGradient x1="240" y1="170" x2="240" y2="190" gradientUnits="userSpaceOnUse" id="color-1"><stop offset="0" stop-color="#808080"/><stop offset="1" stop-color="#4d4d4d"/></linearGradient><linearGradient x1="240" y1="170" x2="240" y2="190" gradientUnits="userSpaceOnUse" id="color-2"><stop offset="0" stop-color="#4d4d4d"/><stop offset="1" stop-color="#808080"/></linearGradient></defs><g transform="translate(-228,-168)"><g data-paper-data="{&quot;isPaintingLayer&quot;:true}" fill-rule="nonzero" stroke-linecap="butt" stroke-linejoin="miter" stroke-miterlimit="10" stroke-dasharray="" stroke-dashoffset="0" style="mix-blend-mode: normal"><path d="M228,168h24v24h-24z" fill="none" stroke="none" stroke-width="1"/><path d="M247.41,175.42c0.38,0.37 0.59,0.88 0.59,1.41v11.17c0,1.1 -0.9,2 -2,2h-12.01c-1.1,0 -1.99,-0.9 -1.99,-2v-16c0,-1.1 0.9,-2 2,-2h7.17c0.53,0 1.04,0.21 1.42,0.59zM244,185c0,-0.55 -0.45,-1 -1,-1h-6c-0.55,0 -1,0.45 -1,1c0,0.55 0.45,1 1,1h6c0.55,0 1,-0.45 1,-1zM244,181c0,-0.55 -0.45,-1 -1,-1h-6c-0.55,0 -1,0.45 -1,1c0,0.55 0.45,1 1,1h6c0.55,0 1,-0.45 1,-1zM242,177h4.5l-5.5,-5.5v4.5c0,0.55 0.45,1 1,1z" fill="url(#color-1)" stroke="url(#color-2)" stroke-width="0.05"/></g></g></svg>